<mxfile host="app.diagrams.net" agent="Mozilla/5.0 (Windows NT 10.0; Win64; x64) AppleWebKit/537.36 (KHTML, like Gecko) Chrome/130.0.0.0 Safari/537.36" version="24.8.1" pages="2">
  <diagram id="C5RBs43oDa-KdzZeNtuy" name="Page-1">
    <mxGraphModel dx="1434" dy="744" grid="1" gridSize="10" guides="1" tooltips="1" connect="1" arrows="1" fold="1" page="1" pageScale="1" pageWidth="827" pageHeight="1169" math="0" shadow="0">
      <root>
        <mxCell id="WIyWlLk6GJQsqaUBKTNV-0" />
        <mxCell id="WIyWlLk6GJQsqaUBKTNV-1" parent="WIyWlLk6GJQsqaUBKTNV-0" />
        <mxCell id="WIyWlLk6GJQsqaUBKTNV-2" value="" style="rounded=0;html=1;jettySize=auto;orthogonalLoop=1;fontSize=11;endArrow=block;endFill=0;endSize=8;strokeWidth=1;shadow=0;labelBackgroundColor=none;edgeStyle=orthogonalEdgeStyle;" parent="WIyWlLk6GJQsqaUBKTNV-1" source="WIyWlLk6GJQsqaUBKTNV-3" target="WIyWlLk6GJQsqaUBKTNV-6" edge="1">
          <mxGeometry relative="1" as="geometry" />
        </mxCell>
        <mxCell id="WIyWlLk6GJQsqaUBKTNV-3" value="Lamp doesn&#39;t work" style="rounded=1;whiteSpace=wrap;html=1;fontSize=12;glass=0;strokeWidth=1;shadow=0;" parent="WIyWlLk6GJQsqaUBKTNV-1" vertex="1">
          <mxGeometry x="160" y="80" width="120" height="40" as="geometry" />
        </mxCell>
        <mxCell id="WIyWlLk6GJQsqaUBKTNV-4" value="Yes" style="rounded=0;html=1;jettySize=auto;orthogonalLoop=1;fontSize=11;endArrow=block;endFill=0;endSize=8;strokeWidth=1;shadow=0;labelBackgroundColor=none;edgeStyle=orthogonalEdgeStyle;" parent="WIyWlLk6GJQsqaUBKTNV-1" source="WIyWlLk6GJQsqaUBKTNV-6" target="WIyWlLk6GJQsqaUBKTNV-10" edge="1">
          <mxGeometry y="20" relative="1" as="geometry">
            <mxPoint as="offset" />
          </mxGeometry>
        </mxCell>
        <mxCell id="WIyWlLk6GJQsqaUBKTNV-5" value="No" style="edgeStyle=orthogonalEdgeStyle;rounded=0;html=1;jettySize=auto;orthogonalLoop=1;fontSize=11;endArrow=block;endFill=0;endSize=8;strokeWidth=1;shadow=0;labelBackgroundColor=none;" parent="WIyWlLk6GJQsqaUBKTNV-1" source="WIyWlLk6GJQsqaUBKTNV-6" target="WIyWlLk6GJQsqaUBKTNV-7" edge="1">
          <mxGeometry y="10" relative="1" as="geometry">
            <mxPoint as="offset" />
          </mxGeometry>
        </mxCell>
        <mxCell id="WIyWlLk6GJQsqaUBKTNV-6" value="Lamp&lt;br&gt;plugged in?" style="rhombus;whiteSpace=wrap;html=1;shadow=0;fontFamily=Helvetica;fontSize=12;align=center;strokeWidth=1;spacing=6;spacingTop=-4;" parent="WIyWlLk6GJQsqaUBKTNV-1" vertex="1">
          <mxGeometry x="170" y="170" width="100" height="80" as="geometry" />
        </mxCell>
        <mxCell id="WIyWlLk6GJQsqaUBKTNV-7" value="Plug in lamp" style="rounded=1;whiteSpace=wrap;html=1;fontSize=12;glass=0;strokeWidth=1;shadow=0;" parent="WIyWlLk6GJQsqaUBKTNV-1" vertex="1">
          <mxGeometry x="320" y="190" width="120" height="40" as="geometry" />
        </mxCell>
        <mxCell id="WIyWlLk6GJQsqaUBKTNV-8" value="No" style="rounded=0;html=1;jettySize=auto;orthogonalLoop=1;fontSize=11;endArrow=block;endFill=0;endSize=8;strokeWidth=1;shadow=0;labelBackgroundColor=none;edgeStyle=orthogonalEdgeStyle;" parent="WIyWlLk6GJQsqaUBKTNV-1" source="WIyWlLk6GJQsqaUBKTNV-10" target="WIyWlLk6GJQsqaUBKTNV-11" edge="1">
          <mxGeometry x="0.3333" y="20" relative="1" as="geometry">
            <mxPoint as="offset" />
          </mxGeometry>
        </mxCell>
        <mxCell id="WIyWlLk6GJQsqaUBKTNV-9" value="Yes" style="edgeStyle=orthogonalEdgeStyle;rounded=0;html=1;jettySize=auto;orthogonalLoop=1;fontSize=11;endArrow=block;endFill=0;endSize=8;strokeWidth=1;shadow=0;labelBackgroundColor=none;" parent="WIyWlLk6GJQsqaUBKTNV-1" source="WIyWlLk6GJQsqaUBKTNV-10" target="WIyWlLk6GJQsqaUBKTNV-12" edge="1">
          <mxGeometry y="10" relative="1" as="geometry">
            <mxPoint as="offset" />
          </mxGeometry>
        </mxCell>
        <mxCell id="WIyWlLk6GJQsqaUBKTNV-10" value="Bulb&lt;br&gt;burned out?" style="rhombus;whiteSpace=wrap;html=1;shadow=0;fontFamily=Helvetica;fontSize=12;align=center;strokeWidth=1;spacing=6;spacingTop=-4;" parent="WIyWlLk6GJQsqaUBKTNV-1" vertex="1">
          <mxGeometry x="170" y="290" width="100" height="80" as="geometry" />
        </mxCell>
        <mxCell id="WIyWlLk6GJQsqaUBKTNV-11" value="Repair Lamp" style="rounded=1;whiteSpace=wrap;html=1;fontSize=12;glass=0;strokeWidth=1;shadow=0;" parent="WIyWlLk6GJQsqaUBKTNV-1" vertex="1">
          <mxGeometry x="160" y="430" width="120" height="40" as="geometry" />
        </mxCell>
        <mxCell id="WIyWlLk6GJQsqaUBKTNV-12" value="Replace Bulb" style="rounded=1;whiteSpace=wrap;html=1;fontSize=12;glass=0;strokeWidth=1;shadow=0;" parent="WIyWlLk6GJQsqaUBKTNV-1" vertex="1">
          <mxGeometry x="320" y="310" width="120" height="40" as="geometry" />
        </mxCell>
      </root>
    </mxGraphModel>
  </diagram>
  <diagram id="rr-L6Gz4u_F1JbJD-AsC" name="WebSocket">
    <mxGraphModel dx="1174" dy="450" grid="1" gridSize="10" guides="1" tooltips="1" connect="1" arrows="1" fold="1" page="1" pageScale="1" pageWidth="827" pageHeight="1169" math="0" shadow="0">
      <root>
        <mxCell id="0" />
        <mxCell id="1" parent="0" />
        <mxCell id="GbT2jXZBh6BYPgOf_wL6-6" value="" style="edgeStyle=orthogonalEdgeStyle;rounded=0;orthogonalLoop=1;jettySize=auto;html=1;sketch=1;curveFitting=1;jiggle=2;" parent="1" source="GbT2jXZBh6BYPgOf_wL6-2" target="GbT2jXZBh6BYPgOf_wL6-5" edge="1">
          <mxGeometry relative="1" as="geometry" />
        </mxCell>
        <mxCell id="GbT2jXZBh6BYPgOf_wL6-2" value="&lt;div&gt;Route&lt;/div&gt;/ws/" style="rounded=0;whiteSpace=wrap;html=1;sketch=1;curveFitting=1;jiggle=2;" parent="1" vertex="1">
          <mxGeometry x="362" y="10" width="120" height="60" as="geometry" />
        </mxCell>
        <mxCell id="GbT2jXZBh6BYPgOf_wL6-8" value="" style="edgeStyle=orthogonalEdgeStyle;rounded=0;orthogonalLoop=1;jettySize=auto;html=1;sketch=1;curveFitting=1;jiggle=2;fillColor=#d5e8d4;strokeColor=#82b366;" parent="1" source="GbT2jXZBh6BYPgOf_wL6-5" target="GbT2jXZBh6BYPgOf_wL6-7" edge="1">
          <mxGeometry relative="1" as="geometry" />
        </mxCell>
        <mxCell id="GbT2jXZBh6BYPgOf_wL6-9" value="&lt;font style=&quot;font-size: 15px;&quot;&gt;newMessage&lt;/font&gt;" style="edgeLabel;html=1;align=center;verticalAlign=middle;resizable=0;points=[];sketch=1;curveFitting=1;jiggle=2;" parent="GbT2jXZBh6BYPgOf_wL6-8" vertex="1" connectable="0">
          <mxGeometry x="-0.1796" relative="1" as="geometry">
            <mxPoint as="offset" />
          </mxGeometry>
        </mxCell>
        <mxCell id="Y9Oi8FYIruErUu7n8yxq-4" style="edgeStyle=orthogonalEdgeStyle;rounded=0;sketch=1;hachureGap=4;jiggle=2;curveFitting=1;orthogonalLoop=1;jettySize=auto;html=1;entryX=0.5;entryY=0;entryDx=0;entryDy=0;fontFamily=Architects Daughter;fontSource=https%3A%2F%2Ffonts.googleapis.com%2Fcss%3Ffamily%3DArchitects%2BDaughter;" edge="1" parent="1" source="GbT2jXZBh6BYPgOf_wL6-5" target="Y9Oi8FYIruErUu7n8yxq-3">
          <mxGeometry relative="1" as="geometry" />
        </mxCell>
        <mxCell id="Y9Oi8FYIruErUu7n8yxq-15" value="&lt;font style=&quot;font-size: 14px;&quot;&gt;acceptFR&lt;/font&gt;" style="edgeLabel;html=1;align=center;verticalAlign=middle;resizable=0;points=[];sketch=1;hachureGap=4;jiggle=2;curveFitting=1;fontFamily=Architects Daughter;fontSource=https%3A%2F%2Ffonts.googleapis.com%2Fcss%3Ffamily%3DArchitects%2BDaughter;" vertex="1" connectable="0" parent="Y9Oi8FYIruErUu7n8yxq-4">
          <mxGeometry x="0.6442" y="1" relative="1" as="geometry">
            <mxPoint as="offset" />
          </mxGeometry>
        </mxCell>
        <mxCell id="Y9Oi8FYIruErUu7n8yxq-25" style="edgeStyle=orthogonalEdgeStyle;rounded=0;sketch=1;hachureGap=4;jiggle=2;curveFitting=1;orthogonalLoop=1;jettySize=auto;html=1;fontFamily=Architects Daughter;fontSource=https%3A%2F%2Ffonts.googleapis.com%2Fcss%3Ffamily%3DArchitects%2BDaughter;" edge="1" parent="1" source="GbT2jXZBh6BYPgOf_wL6-5" target="Y9Oi8FYIruErUu7n8yxq-20">
          <mxGeometry relative="1" as="geometry" />
        </mxCell>
        <mxCell id="Y9Oi8FYIruErUu7n8yxq-26" value="&lt;font style=&quot;font-size: 14px;&quot;&gt;sendFR&lt;/font&gt;" style="edgeLabel;html=1;align=center;verticalAlign=middle;resizable=0;points=[];sketch=1;hachureGap=4;jiggle=2;curveFitting=1;fontFamily=Architects Daughter;fontSource=https%3A%2F%2Ffonts.googleapis.com%2Fcss%3Ffamily%3DArchitects%2BDaughter;" vertex="1" connectable="0" parent="Y9Oi8FYIruErUu7n8yxq-25">
          <mxGeometry x="0.8463" relative="1" as="geometry">
            <mxPoint as="offset" />
          </mxGeometry>
        </mxCell>
        <mxCell id="Y9Oi8FYIruErUu7n8yxq-32" style="edgeStyle=orthogonalEdgeStyle;rounded=0;sketch=1;hachureGap=4;jiggle=2;curveFitting=1;orthogonalLoop=1;jettySize=auto;html=1;entryX=0.5;entryY=0;entryDx=0;entryDy=0;fontFamily=Architects Daughter;fontSource=https%3A%2F%2Ffonts.googleapis.com%2Fcss%3Ffamily%3DArchitects%2BDaughter;" edge="1" parent="1" source="GbT2jXZBh6BYPgOf_wL6-5" target="Y9Oi8FYIruErUu7n8yxq-28">
          <mxGeometry relative="1" as="geometry" />
        </mxCell>
        <mxCell id="Y9Oi8FYIruErUu7n8yxq-33" value="&lt;font style=&quot;font-size: 14px;&quot;&gt;removeFriend&lt;/font&gt;" style="edgeLabel;html=1;align=center;verticalAlign=middle;resizable=0;points=[];sketch=1;hachureGap=4;jiggle=2;curveFitting=1;fontFamily=Architects Daughter;fontSource=https%3A%2F%2Ffonts.googleapis.com%2Fcss%3Ffamily%3DArchitects%2BDaughter;" vertex="1" connectable="0" parent="Y9Oi8FYIruErUu7n8yxq-32">
          <mxGeometry x="0.8658" y="2" relative="1" as="geometry">
            <mxPoint as="offset" />
          </mxGeometry>
        </mxCell>
        <mxCell id="GbT2jXZBh6BYPgOf_wL6-5" value="&lt;div style=&quot;&quot;&gt;&lt;div style=&quot;color: rgb(171, 178, 191); background-color: rgb(40, 44, 52); font-family: Consolas, &amp;quot;Courier New&amp;quot;, monospace; font-size: 14px; line-height: 19px; white-space: pre;&quot;&gt;&lt;span style=&quot;color: #e5c07b;&quot;&gt;IncomingBase&lt;/span&gt;&lt;/div&gt;&lt;/div&gt;&lt;div style=&quot;&quot;&gt;{&lt;/div&gt;&lt;div style=&quot;text-align: left;&quot;&gt;&lt;font color=&quot;#59b7ff&quot;&gt;&quot;type&quot;: &amp;lt;string&amp;gt;&lt;/font&gt;&lt;/div&gt;&lt;div style=&quot;&quot;&gt;}&lt;/div&gt;" style="shape=hexagon;perimeter=hexagonPerimeter2;whiteSpace=wrap;html=1;fixedSize=1;rounded=0;align=center;sketch=1;curveFitting=1;jiggle=2;fillColor=#f5f5f5;fontColor=#333333;strokeColor=#666666;" parent="1" vertex="1">
          <mxGeometry x="354" y="130" width="136" height="90" as="geometry" />
        </mxCell>
        <mxCell id="GbT2jXZBh6BYPgOf_wL6-25" value="" style="edgeStyle=orthogonalEdgeStyle;rounded=0;sketch=1;hachureGap=4;jiggle=2;curveFitting=1;orthogonalLoop=1;jettySize=auto;html=1;fontFamily=Architects Daughter;fontSource=https%3A%2F%2Ffonts.googleapis.com%2Fcss%3Ffamily%3DArchitects%2BDaughter;" parent="1" source="GbT2jXZBh6BYPgOf_wL6-7" target="GbT2jXZBh6BYPgOf_wL6-24" edge="1">
          <mxGeometry relative="1" as="geometry" />
        </mxCell>
        <mxCell id="GbT2jXZBh6BYPgOf_wL6-7" value="&lt;div&gt;&lt;div style=&quot;color: rgb(171, 178, 191); background-color: rgb(40, 44, 52); font-family: Consolas, &amp;quot;Courier New&amp;quot;, monospace; font-size: 14px; line-height: 19px; white-space: pre;&quot;&gt;&lt;span style=&quot;color: #e5c07b;&quot;&gt;NewMessage&lt;/span&gt;&lt;/div&gt;&lt;/div&gt;{&lt;div&gt;type: &quot;newMessage&quot;&lt;br&gt;content: &amp;lt;string&amp;gt;&lt;/div&gt;&lt;div&gt;chat_id: &amp;lt;int&amp;gt;&lt;/div&gt;&lt;div&gt;message_id: &amp;lt;int&amp;gt;&lt;/div&gt;&lt;div&gt;}&lt;/div&gt;" style="whiteSpace=wrap;html=1;rounded=0;sketch=1;curveFitting=1;jiggle=2;fillColor=#d5e8d4;strokeColor=#82b366;" parent="1" vertex="1">
          <mxGeometry x="10" y="250" width="120" height="100" as="geometry" />
        </mxCell>
        <mxCell id="GbT2jXZBh6BYPgOf_wL6-11" value="\" style="edgeStyle=orthogonalEdgeStyle;rounded=0;orthogonalLoop=1;jettySize=auto;html=1;exitX=0.375;exitY=1;exitDx=0;exitDy=0;sketch=1;curveFitting=1;jiggle=2;fillColor=#d5e8d4;strokeColor=#82b366;" parent="1" source="GbT2jXZBh6BYPgOf_wL6-5" target="GbT2jXZBh6BYPgOf_wL6-13" edge="1">
          <mxGeometry relative="1" as="geometry">
            <mxPoint x="390" y="240" as="sourcePoint" />
            <Array as="points">
              <mxPoint x="405" y="230" />
              <mxPoint x="250" y="230" />
            </Array>
          </mxGeometry>
        </mxCell>
        <mxCell id="GbT2jXZBh6BYPgOf_wL6-12" value="&lt;font style=&quot;font-size: 15px;&quot;&gt;newChat&lt;/font&gt;" style="edgeLabel;html=1;align=center;verticalAlign=middle;resizable=0;points=[];sketch=1;curveFitting=1;jiggle=2;" parent="GbT2jXZBh6BYPgOf_wL6-11" vertex="1" connectable="0">
          <mxGeometry x="-0.1796" relative="1" as="geometry">
            <mxPoint as="offset" />
          </mxGeometry>
        </mxCell>
        <mxCell id="GbT2jXZBh6BYPgOf_wL6-29" style="edgeStyle=orthogonalEdgeStyle;rounded=0;sketch=1;hachureGap=4;jiggle=2;curveFitting=1;orthogonalLoop=1;jettySize=auto;html=1;fontFamily=Architects Daughter;fontSource=https%3A%2F%2Ffonts.googleapis.com%2Fcss%3Ffamily%3DArchitects%2BDaughter;" parent="1" source="GbT2jXZBh6BYPgOf_wL6-13" target="GbT2jXZBh6BYPgOf_wL6-27" edge="1">
          <mxGeometry relative="1" as="geometry" />
        </mxCell>
        <mxCell id="GbT2jXZBh6BYPgOf_wL6-13" value="&lt;div&gt;&lt;div style=&quot;color: rgb(171, 178, 191); background-color: rgb(40, 44, 52); font-family: Consolas, &amp;quot;Courier New&amp;quot;, monospace; font-size: 14px; line-height: 19px; white-space: pre;&quot;&gt;&lt;span style=&quot;color: #e5c07b;&quot;&gt;NewChat&lt;/span&gt;&lt;/div&gt;&lt;/div&gt;{&lt;div&gt;type: &quot;newChat&quot;&lt;br&gt;members: &amp;lt;[]int&amp;gt;&lt;/div&gt;&lt;div&gt;chat_name: &amp;lt;string | &quot;&quot;&amp;gt;&lt;/div&gt;&lt;div&gt;}&lt;/div&gt;" style="whiteSpace=wrap;html=1;rounded=0;sketch=1;curveFitting=1;jiggle=2;fillColor=#d5e8d4;strokeColor=#82b366;" parent="1" vertex="1">
          <mxGeometry x="180" y="250" width="140" height="100" as="geometry" />
        </mxCell>
        <mxCell id="GbT2jXZBh6BYPgOf_wL6-38" value="" style="edgeStyle=orthogonalEdgeStyle;rounded=0;sketch=1;hachureGap=4;jiggle=2;curveFitting=1;orthogonalLoop=1;jettySize=auto;html=1;fontFamily=Architects Daughter;fontSource=https%3A%2F%2Ffonts.googleapis.com%2Fcss%3Ffamily%3DArchitects%2BDaughter;" parent="1" source="GbT2jXZBh6BYPgOf_wL6-18" target="GbT2jXZBh6BYPgOf_wL6-37" edge="1">
          <mxGeometry relative="1" as="geometry" />
        </mxCell>
        <mxCell id="GbT2jXZBh6BYPgOf_wL6-18" value="&lt;div&gt;&lt;div style=&quot;color: rgb(171, 178, 191); background-color: rgb(40, 44, 52); font-family: Consolas, &amp;quot;Courier New&amp;quot;, monospace; font-size: 14px; line-height: 19px; white-space: pre;&quot;&gt;&lt;span style=&quot;color: #e5c07b;&quot;&gt;OutgoingBase&lt;/span&gt;&lt;/div&gt;&lt;/div&gt;{&lt;div&gt;type: &amp;lt;string&amp;gt;&lt;br&gt;&lt;font color=&quot;#ff9933&quot;&gt;data: &amp;lt;custom JSON&amp;gt;&lt;/font&gt;&lt;/div&gt;&lt;div&gt;verify_type: &quot;ChatID&quot; | &quot;UserID&quot;&lt;/div&gt;&lt;div&gt;verify_ids: &amp;lt;[]int&amp;gt;&lt;/div&gt;&lt;div&gt;sent_at: &amp;lt;&lt;span style=&quot;background-color: initial;&quot;&gt;time.time&amp;gt;&lt;/span&gt;&lt;/div&gt;&lt;div&gt;&lt;span style=&quot;background-color: initial;&quot;&gt;}&lt;/span&gt;&lt;/div&gt;&lt;div&gt;}&lt;/div&gt;" style="whiteSpace=wrap;html=1;rounded=0;sketch=1;curveFitting=1;jiggle=2;fillColor=#ffe6cc;strokeColor=#d79b00;" parent="1" vertex="1">
          <mxGeometry x="370" y="680" width="200" height="120" as="geometry" />
        </mxCell>
        <mxCell id="GbT2jXZBh6BYPgOf_wL6-20" value="" style="endArrow=none;html=1;rounded=0;sketch=1;hachureGap=4;jiggle=2;curveFitting=1;fontFamily=Architects Daughter;fontSource=https%3A%2F%2Ffonts.googleapis.com%2Fcss%3Ffamily%3DArchitects%2BDaughter;" parent="1" edge="1">
          <mxGeometry width="50" height="50" relative="1" as="geometry">
            <mxPoint y="380" as="sourcePoint" />
            <mxPoint x="820" y="380" as="targetPoint" />
          </mxGeometry>
        </mxCell>
        <mxCell id="GbT2jXZBh6BYPgOf_wL6-21" value="&lt;font style=&quot;font-size: 21px;&quot;&gt;HANDLER FUNCTION&lt;/font&gt;" style="edgeLabel;html=1;align=center;verticalAlign=middle;resizable=0;points=[];sketch=1;hachureGap=4;jiggle=2;curveFitting=1;fontFamily=Architects Daughter;fontSource=https%3A%2F%2Ffonts.googleapis.com%2Fcss%3Ffamily%3DArchitects%2BDaughter;" parent="GbT2jXZBh6BYPgOf_wL6-20" vertex="1" connectable="0">
          <mxGeometry x="0.1" y="-1" relative="1" as="geometry">
            <mxPoint as="offset" />
          </mxGeometry>
        </mxCell>
        <mxCell id="GbT2jXZBh6BYPgOf_wL6-22" value="" style="endArrow=none;html=1;rounded=0;sketch=1;hachureGap=4;jiggle=2;curveFitting=1;fontFamily=Architects Daughter;fontSource=https%3A%2F%2Ffonts.googleapis.com%2Fcss%3Ffamily%3DArchitects%2BDaughter;" parent="1" edge="1">
          <mxGeometry width="50" height="50" relative="1" as="geometry">
            <mxPoint x="4" y="100" as="sourcePoint" />
            <mxPoint x="824" y="100" as="targetPoint" />
          </mxGeometry>
        </mxCell>
        <mxCell id="GbT2jXZBh6BYPgOf_wL6-23" value="&lt;font style=&quot;font-size: 21px;&quot;&gt;WS INPUT MESSAGE&lt;/font&gt;" style="edgeLabel;html=1;align=center;verticalAlign=middle;resizable=0;points=[];sketch=1;hachureGap=4;jiggle=2;curveFitting=1;fontFamily=Architects Daughter;fontSource=https%3A%2F%2Ffonts.googleapis.com%2Fcss%3Ffamily%3DArchitects%2BDaughter;" parent="GbT2jXZBh6BYPgOf_wL6-22" vertex="1" connectable="0">
          <mxGeometry x="0.1" y="-1" relative="1" as="geometry">
            <mxPoint as="offset" />
          </mxGeometry>
        </mxCell>
        <mxCell id="GbT2jXZBh6BYPgOf_wL6-26" style="edgeStyle=orthogonalEdgeStyle;rounded=0;sketch=1;hachureGap=4;jiggle=2;curveFitting=1;orthogonalLoop=1;jettySize=auto;html=1;fontFamily=Architects Daughter;fontSource=https%3A%2F%2Ffonts.googleapis.com%2Fcss%3Ffamily%3DArchitects%2BDaughter;" parent="1" source="GbT2jXZBh6BYPgOf_wL6-24" target="GbT2jXZBh6BYPgOf_wL6-18" edge="1">
          <mxGeometry relative="1" as="geometry">
            <Array as="points">
              <mxPoint x="110" y="550" />
            </Array>
          </mxGeometry>
        </mxCell>
        <mxCell id="GbT2jXZBh6BYPgOf_wL6-24" value="&lt;div&gt;&lt;div style=&quot;background-color: rgb(40, 44, 52); font-family: Consolas, &amp;quot;Courier New&amp;quot;, monospace; font-size: 14px; line-height: 19px; white-space: pre; color: rgb(171, 178, 191);&quot;&gt;&lt;span style=&quot;color: #e5c07b;&quot;&gt;data&lt;/span&gt;&lt;/div&gt;&lt;/div&gt;{&lt;div&gt;content: &amp;lt;string&amp;gt;&lt;/div&gt;&lt;div&gt;}&lt;/div&gt;" style="whiteSpace=wrap;html=1;rounded=0;sketch=1;curveFitting=1;jiggle=2;fillColor=#d5e8d4;strokeColor=#82b366;" parent="1" vertex="1">
          <mxGeometry x="10" y="420" width="120" height="100" as="geometry" />
        </mxCell>
        <mxCell id="GbT2jXZBh6BYPgOf_wL6-28" style="edgeStyle=orthogonalEdgeStyle;rounded=0;sketch=1;hachureGap=4;jiggle=2;curveFitting=1;orthogonalLoop=1;jettySize=auto;html=1;fontFamily=Architects Daughter;fontSource=https%3A%2F%2Ffonts.googleapis.com%2Fcss%3Ffamily%3DArchitects%2BDaughter;" parent="1" source="GbT2jXZBh6BYPgOf_wL6-27" target="GbT2jXZBh6BYPgOf_wL6-18" edge="1">
          <mxGeometry relative="1" as="geometry">
            <mxPoint x="500" y="670" as="targetPoint" />
            <Array as="points">
              <mxPoint x="250" y="550" />
              <mxPoint x="470" y="550" />
            </Array>
          </mxGeometry>
        </mxCell>
        <mxCell id="GbT2jXZBh6BYPgOf_wL6-27" value="&lt;div&gt;&lt;div style=&quot;background-color: rgb(40, 44, 52); font-family: Consolas, &amp;quot;Courier New&amp;quot;, monospace; font-size: 14px; line-height: 19px; white-space: pre; color: rgb(171, 178, 191);&quot;&gt;&lt;span style=&quot;color: #e5c07b;&quot;&gt;data&lt;/span&gt;&lt;/div&gt;&lt;/div&gt;{&lt;div&gt;chat_id: &amp;lt;int&amp;gt;&lt;br&gt;chat_name: &amp;lt;string&amp;gt;&lt;br&gt;members: &amp;lt;[]int&amp;gt;&lt;/div&gt;&lt;div&gt;}&lt;/div&gt;" style="whiteSpace=wrap;html=1;rounded=0;sketch=1;curveFitting=1;jiggle=2;fillColor=#d5e8d4;strokeColor=#82b366;" parent="1" vertex="1">
          <mxGeometry x="190" y="420" width="120" height="100" as="geometry" />
        </mxCell>
        <mxCell id="GbT2jXZBh6BYPgOf_wL6-30" value="" style="endArrow=none;html=1;rounded=0;sketch=1;hachureGap=4;jiggle=2;curveFitting=1;fontFamily=Architects Daughter;fontSource=https%3A%2F%2Ffonts.googleapis.com%2Fcss%3Ffamily%3DArchitects%2BDaughter;" parent="1" edge="1">
          <mxGeometry width="50" height="50" relative="1" as="geometry">
            <mxPoint x="7" y="850" as="sourcePoint" />
            <mxPoint x="827" y="850" as="targetPoint" />
          </mxGeometry>
        </mxCell>
        <mxCell id="GbT2jXZBh6BYPgOf_wL6-31" value="&lt;font style=&quot;font-size: 21px;&quot;&gt;BROADCASTER&lt;/font&gt;" style="edgeLabel;html=1;align=center;verticalAlign=middle;resizable=0;points=[];sketch=1;hachureGap=4;jiggle=2;curveFitting=1;fontFamily=Architects Daughter;fontSource=https%3A%2F%2Ffonts.googleapis.com%2Fcss%3Ffamily%3DArchitects%2BDaughter;" parent="GbT2jXZBh6BYPgOf_wL6-30" vertex="1" connectable="0">
          <mxGeometry x="0.1" y="-1" relative="1" as="geometry">
            <mxPoint as="offset" />
          </mxGeometry>
        </mxCell>
        <mxCell id="GbT2jXZBh6BYPgOf_wL6-40" value="" style="edgeStyle=orthogonalEdgeStyle;rounded=0;sketch=1;hachureGap=4;jiggle=2;curveFitting=1;orthogonalLoop=1;jettySize=auto;html=1;fontFamily=Architects Daughter;fontSource=https%3A%2F%2Ffonts.googleapis.com%2Fcss%3Ffamily%3DArchitects%2BDaughter;" parent="1" source="GbT2jXZBh6BYPgOf_wL6-37" target="GbT2jXZBh6BYPgOf_wL6-39" edge="1">
          <mxGeometry relative="1" as="geometry" />
        </mxCell>
        <mxCell id="GbT2jXZBh6BYPgOf_wL6-37" value="Verifies whom to send the message by verift_type and vefity_ids" style="shape=parallelogram;perimeter=parallelogramPerimeter;whiteSpace=wrap;html=1;fixedSize=1;fillColor=#ffe6cc;strokeColor=#d79b00;rounded=0;sketch=1;curveFitting=1;jiggle=2;" parent="1" vertex="1">
          <mxGeometry x="375" y="900" width="190" height="80" as="geometry" />
        </mxCell>
        <mxCell id="GbT2jXZBh6BYPgOf_wL6-44" style="edgeStyle=orthogonalEdgeStyle;rounded=0;sketch=1;hachureGap=4;jiggle=2;curveFitting=1;orthogonalLoop=1;jettySize=auto;html=1;fontFamily=Architects Daughter;fontSource=https%3A%2F%2Ffonts.googleapis.com%2Fcss%3Ffamily%3DArchitects%2BDaughter;" parent="1" source="GbT2jXZBh6BYPgOf_wL6-39" target="GbT2jXZBh6BYPgOf_wL6-43" edge="1">
          <mxGeometry relative="1" as="geometry" />
        </mxCell>
        <mxCell id="GbT2jXZBh6BYPgOf_wL6-39" value="Send data further" style="shape=parallelogram;perimeter=parallelogramPerimeter;whiteSpace=wrap;html=1;fixedSize=1;fillColor=#ffe6cc;strokeColor=#d79b00;rounded=0;sketch=1;curveFitting=1;jiggle=2;" parent="1" vertex="1">
          <mxGeometry x="410" y="1010" width="120" height="60" as="geometry" />
        </mxCell>
        <mxCell id="GbT2jXZBh6BYPgOf_wL6-41" value="" style="endArrow=none;html=1;rounded=0;sketch=1;hachureGap=4;jiggle=2;curveFitting=1;fontFamily=Architects Daughter;fontSource=https%3A%2F%2Ffonts.googleapis.com%2Fcss%3Ffamily%3DArchitects%2BDaughter;" parent="1" edge="1">
          <mxGeometry width="50" height="50" relative="1" as="geometry">
            <mxPoint x="3" y="1110" as="sourcePoint" />
            <mxPoint x="823" y="1110" as="targetPoint" />
          </mxGeometry>
        </mxCell>
        <mxCell id="GbT2jXZBh6BYPgOf_wL6-42" value="&lt;font style=&quot;font-size: 21px;&quot;&gt;WS OUTPUT&lt;/font&gt;" style="edgeLabel;html=1;align=center;verticalAlign=middle;resizable=0;points=[];sketch=1;hachureGap=4;jiggle=2;curveFitting=1;fontFamily=Architects Daughter;fontSource=https%3A%2F%2Ffonts.googleapis.com%2Fcss%3Ffamily%3DArchitects%2BDaughter;" parent="GbT2jXZBh6BYPgOf_wL6-41" vertex="1" connectable="0">
          <mxGeometry x="0.1" y="-1" relative="1" as="geometry">
            <mxPoint as="offset" />
          </mxGeometry>
        </mxCell>
        <mxCell id="GbT2jXZBh6BYPgOf_wL6-43" value="&lt;div&gt;&lt;div style=&quot;background-color: rgb(40, 44, 52); font-family: Consolas, &amp;quot;Courier New&amp;quot;, monospace; font-size: 14px; line-height: 19px; white-space: pre; color: rgb(171, 178, 191);&quot;&gt;&lt;span style=&quot;color: #e5c07b;&quot;&gt;Final&lt;/span&gt;&lt;/div&gt;&lt;/div&gt;&lt;br&gt;&lt;div&gt;{&lt;/div&gt;&lt;div&gt;type: &amp;lt;string&amp;gt;&lt;br&gt;data: custom &amp;lt;json&amp;gt;&lt;/div&gt;&lt;div&gt;}&lt;/div&gt;" style="whiteSpace=wrap;html=1;rounded=0;sketch=1;curveFitting=1;jiggle=2;fillColor=#d5e8d4;strokeColor=#82b366;" parent="1" vertex="1">
          <mxGeometry x="395" y="1180" width="150" height="100" as="geometry" />
        </mxCell>
        <mxCell id="Y9Oi8FYIruErUu7n8yxq-7" style="edgeStyle=orthogonalEdgeStyle;rounded=0;sketch=1;hachureGap=4;jiggle=2;curveFitting=1;orthogonalLoop=1;jettySize=auto;html=1;fontFamily=Architects Daughter;fontSource=https%3A%2F%2Ffonts.googleapis.com%2Fcss%3Ffamily%3DArchitects%2BDaughter;" edge="1" parent="1" source="Y9Oi8FYIruErUu7n8yxq-3" target="Y9Oi8FYIruErUu7n8yxq-6">
          <mxGeometry relative="1" as="geometry" />
        </mxCell>
        <mxCell id="Y9Oi8FYIruErUu7n8yxq-3" value="&lt;div&gt;&lt;div style=&quot;color: rgb(171, 178, 191); background-color: rgb(40, 44, 52); font-family: Consolas, &amp;quot;Courier New&amp;quot;, monospace; font-size: 14px; line-height: 19px; white-space: pre;&quot;&gt;&lt;span style=&quot;color: #e5c07b;&quot;&gt;IncomingFR&lt;/span&gt;&lt;/div&gt;&lt;/div&gt;{&lt;div&gt;type: &quot;acceptFR&quot;&lt;/div&gt;&lt;div&gt;sender_id: &amp;lt;int&amp;gt;&amp;nbsp;&lt;/div&gt;&lt;div&gt;}&lt;/div&gt;" style="whiteSpace=wrap;html=1;rounded=0;sketch=1;curveFitting=1;jiggle=2;fillColor=#d5e8d4;strokeColor=#82b366;" vertex="1" parent="1">
          <mxGeometry x="540" y="250" width="120" height="100" as="geometry" />
        </mxCell>
        <mxCell id="Y9Oi8FYIruErUu7n8yxq-8" style="edgeStyle=orthogonalEdgeStyle;rounded=0;sketch=1;hachureGap=4;jiggle=2;curveFitting=1;orthogonalLoop=1;jettySize=auto;html=1;fontFamily=Architects Daughter;fontSource=https%3A%2F%2Ffonts.googleapis.com%2Fcss%3Ffamily%3DArchitects%2BDaughter;exitX=0.5;exitY=1;exitDx=0;exitDy=0;" edge="1" parent="1" source="Y9Oi8FYIruErUu7n8yxq-6">
          <mxGeometry relative="1" as="geometry">
            <mxPoint x="470" y="690" as="targetPoint" />
            <Array as="points">
              <mxPoint x="680" y="690" />
            </Array>
          </mxGeometry>
        </mxCell>
        <mxCell id="Y9Oi8FYIruErUu7n8yxq-6" value="&lt;div&gt;&lt;div style=&quot;background-color: rgb(40, 44, 52); font-family: Consolas, &amp;quot;Courier New&amp;quot;, monospace; font-size: 14px; line-height: 19px; white-space: pre; color: rgb(171, 178, 191);&quot;&gt;&lt;span style=&quot;color: #e5c07b;&quot;&gt;IncomingFRData&lt;/span&gt;&lt;/div&gt;&lt;/div&gt;{&lt;div&gt;sender_id: &amp;lt;int&amp;gt;&lt;br&gt;receiver_id: &amp;lt;int&amp;gt;&lt;/div&gt;&lt;div&gt;}&lt;/div&gt;" style="whiteSpace=wrap;html=1;rounded=0;sketch=1;curveFitting=1;jiggle=2;fillColor=#d5e8d4;strokeColor=#82b366;" vertex="1" parent="1">
          <mxGeometry x="530" y="420" width="300" height="100" as="geometry" />
        </mxCell>
        <mxCell id="Y9Oi8FYIruErUu7n8yxq-18" style="edgeStyle=orthogonalEdgeStyle;rounded=0;sketch=1;hachureGap=4;jiggle=2;curveFitting=1;orthogonalLoop=1;jettySize=auto;html=1;entryX=0.5;entryY=0;entryDx=0;entryDy=0;fontFamily=Architects Daughter;fontSource=https%3A%2F%2Ffonts.googleapis.com%2Fcss%3Ffamily%3DArchitects%2BDaughter;" edge="1" parent="1" source="Y9Oi8FYIruErUu7n8yxq-9" target="Y9Oi8FYIruErUu7n8yxq-6">
          <mxGeometry relative="1" as="geometry">
            <mxPoint x="780" y="420" as="targetPoint" />
          </mxGeometry>
        </mxCell>
        <mxCell id="Y9Oi8FYIruErUu7n8yxq-9" value="&lt;div&gt;&lt;div style=&quot;color: rgb(171, 178, 191); background-color: rgb(40, 44, 52); font-family: Consolas, &amp;quot;Courier New&amp;quot;, monospace; font-size: 14px; line-height: 19px; white-space: pre;&quot;&gt;&lt;span style=&quot;color: #e5c07b;&quot;&gt;IncomingFR&lt;/span&gt;&lt;/div&gt;&lt;/div&gt;{&lt;div&gt;type: &quot;rejectFR&quot;&lt;/div&gt;&lt;div&gt;sender_id: &amp;lt;int&amp;gt;&amp;nbsp;&lt;/div&gt;&lt;div&gt;}&lt;/div&gt;" style="whiteSpace=wrap;html=1;rounded=0;sketch=1;curveFitting=1;jiggle=2;fillColor=#d5e8d4;strokeColor=#82b366;" vertex="1" parent="1">
          <mxGeometry x="720" y="250" width="120" height="100" as="geometry" />
        </mxCell>
        <mxCell id="Y9Oi8FYIruErUu7n8yxq-11" style="edgeStyle=orthogonalEdgeStyle;rounded=0;sketch=1;hachureGap=4;jiggle=2;curveFitting=1;orthogonalLoop=1;jettySize=auto;html=1;entryX=0.5;entryY=0;entryDx=0;entryDy=0;fontFamily=Architects Daughter;fontSource=https%3A%2F%2Ffonts.googleapis.com%2Fcss%3Ffamily%3DArchitects%2BDaughter;exitX=1;exitY=0.5;exitDx=0;exitDy=0;" edge="1" parent="1" source="GbT2jXZBh6BYPgOf_wL6-5" target="Y9Oi8FYIruErUu7n8yxq-9">
          <mxGeometry relative="1" as="geometry">
            <mxPoint x="500" y="185" as="sourcePoint" />
            <mxPoint x="610" y="260" as="targetPoint" />
          </mxGeometry>
        </mxCell>
        <mxCell id="Y9Oi8FYIruErUu7n8yxq-17" value="rejectFR" style="edgeLabel;html=1;align=center;verticalAlign=middle;resizable=0;points=[];sketch=1;hachureGap=4;jiggle=2;curveFitting=1;fontFamily=Architects Daughter;fontSource=https%3A%2F%2Ffonts.googleapis.com%2Fcss%3Ffamily%3DArchitects%2BDaughter;" vertex="1" connectable="0" parent="Y9Oi8FYIruErUu7n8yxq-11">
          <mxGeometry x="0.8023" relative="1" as="geometry">
            <mxPoint as="offset" />
          </mxGeometry>
        </mxCell>
        <mxCell id="Y9Oi8FYIruErUu7n8yxq-23" value="" style="edgeStyle=orthogonalEdgeStyle;rounded=0;sketch=1;hachureGap=4;jiggle=2;curveFitting=1;orthogonalLoop=1;jettySize=auto;html=1;fontFamily=Architects Daughter;fontSource=https%3A%2F%2Ffonts.googleapis.com%2Fcss%3Ffamily%3DArchitects%2BDaughter;" edge="1" parent="1" source="Y9Oi8FYIruErUu7n8yxq-20" target="Y9Oi8FYIruErUu7n8yxq-22">
          <mxGeometry relative="1" as="geometry" />
        </mxCell>
        <mxCell id="Y9Oi8FYIruErUu7n8yxq-20" value="&lt;div&gt;&lt;div style=&quot;background-color: rgb(40, 44, 52); font-family: Consolas, &amp;quot;Courier New&amp;quot;, monospace; font-size: 14px; line-height: 19px; white-space: pre;&quot;&gt;&lt;font color=&quot;#e5c07b&quot;&gt;SendFR&lt;/font&gt;&lt;/div&gt;&lt;/div&gt;{&lt;div&gt;type: &quot;sendFR&quot;&lt;/div&gt;&lt;div&gt;receiver_id: &amp;lt;int&amp;gt;&amp;nbsp;&lt;/div&gt;&lt;div&gt;}&lt;/div&gt;" style="whiteSpace=wrap;html=1;rounded=0;sketch=1;curveFitting=1;jiggle=2;fillColor=#d5e8d4;strokeColor=#82b366;" vertex="1" parent="1">
          <mxGeometry x="900" y="250" width="120" height="100" as="geometry" />
        </mxCell>
        <mxCell id="Y9Oi8FYIruErUu7n8yxq-24" style="edgeStyle=orthogonalEdgeStyle;rounded=0;sketch=1;hachureGap=4;jiggle=2;curveFitting=1;orthogonalLoop=1;jettySize=auto;html=1;fontFamily=Architects Daughter;fontSource=https%3A%2F%2Ffonts.googleapis.com%2Fcss%3Ffamily%3DArchitects%2BDaughter;" edge="1" parent="1" source="Y9Oi8FYIruErUu7n8yxq-22" target="GbT2jXZBh6BYPgOf_wL6-18">
          <mxGeometry relative="1" as="geometry">
            <Array as="points">
              <mxPoint x="960" y="740" />
            </Array>
          </mxGeometry>
        </mxCell>
        <mxCell id="Y9Oi8FYIruErUu7n8yxq-22" value="&lt;div&gt;&lt;div style=&quot;background-color: rgb(40, 44, 52); font-family: Consolas, &amp;quot;Courier New&amp;quot;, monospace; font-size: 14px; line-height: 19px; white-space: pre;&quot;&gt;&lt;font color=&quot;#e5c07b&quot;&gt;SendFRData&lt;/font&gt;&lt;/div&gt;&lt;/div&gt;{&lt;div&gt;receiver_id: &amp;lt;int&amp;gt;&lt;/div&gt;&lt;div&gt;sender_id: &amp;lt;int&amp;gt;&amp;nbsp;&lt;/div&gt;&lt;div&gt;}&lt;/div&gt;" style="whiteSpace=wrap;html=1;rounded=0;sketch=1;curveFitting=1;jiggle=2;fillColor=#d5e8d4;strokeColor=#82b366;" vertex="1" parent="1">
          <mxGeometry x="900" y="420" width="120" height="100" as="geometry" />
        </mxCell>
        <mxCell id="Y9Oi8FYIruErUu7n8yxq-30" value="" style="edgeStyle=orthogonalEdgeStyle;rounded=0;sketch=1;hachureGap=4;jiggle=2;curveFitting=1;orthogonalLoop=1;jettySize=auto;html=1;fontFamily=Architects Daughter;fontSource=https%3A%2F%2Ffonts.googleapis.com%2Fcss%3Ffamily%3DArchitects%2BDaughter;" edge="1" parent="1" source="Y9Oi8FYIruErUu7n8yxq-28" target="Y9Oi8FYIruErUu7n8yxq-29">
          <mxGeometry relative="1" as="geometry" />
        </mxCell>
        <mxCell id="Y9Oi8FYIruErUu7n8yxq-28" value="&lt;div&gt;&lt;div style=&quot;background-color: rgb(40, 44, 52); font-family: Consolas, &amp;quot;Courier New&amp;quot;, monospace; font-size: 14px; line-height: 19px; white-space: pre;&quot;&gt;&lt;font color=&quot;#e5c07b&quot;&gt;RemoveFriend&lt;/font&gt;&lt;/div&gt;&lt;/div&gt;{&lt;div&gt;type: &quot;removeFriend&quot;&lt;/div&gt;&lt;div&gt;friend_id: &amp;lt;int&amp;gt;&amp;nbsp;&lt;/div&gt;&lt;div&gt;}&lt;/div&gt;" style="whiteSpace=wrap;html=1;rounded=0;sketch=1;curveFitting=1;jiggle=2;fillColor=#d5e8d4;strokeColor=#82b366;" vertex="1" parent="1">
          <mxGeometry x="1080" y="250" width="130" height="100" as="geometry" />
        </mxCell>
        <mxCell id="Y9Oi8FYIruErUu7n8yxq-34" style="edgeStyle=orthogonalEdgeStyle;rounded=0;sketch=1;hachureGap=4;jiggle=2;curveFitting=1;orthogonalLoop=1;jettySize=auto;html=1;fontFamily=Architects Daughter;fontSource=https%3A%2F%2Ffonts.googleapis.com%2Fcss%3Ffamily%3DArchitects%2BDaughter;" edge="1" parent="1" source="Y9Oi8FYIruErUu7n8yxq-29" target="GbT2jXZBh6BYPgOf_wL6-18">
          <mxGeometry relative="1" as="geometry">
            <Array as="points">
              <mxPoint x="1145" y="740" />
            </Array>
          </mxGeometry>
        </mxCell>
        <mxCell id="Y9Oi8FYIruErUu7n8yxq-29" value="&lt;div&gt;&lt;div style=&quot;background-color: rgb(40, 44, 52); font-family: Consolas, &amp;quot;Courier New&amp;quot;, monospace; font-size: 14px; line-height: 19px; white-space: pre;&quot;&gt;&lt;font color=&quot;#e5c07b&quot;&gt;RemoveFriendData&lt;/font&gt;&lt;/div&gt;&lt;/div&gt;{&lt;div&gt;user_id: &amp;lt;int&amp;gt;&lt;/div&gt;&lt;div&gt;friend_id: &amp;lt;int&amp;gt;&amp;nbsp;&lt;/div&gt;&lt;div&gt;}&lt;/div&gt;" style="whiteSpace=wrap;html=1;rounded=0;sketch=1;curveFitting=1;jiggle=2;fillColor=#d5e8d4;strokeColor=#82b366;" vertex="1" parent="1">
          <mxGeometry x="1070" y="420" width="150" height="100" as="geometry" />
        </mxCell>
      </root>
    </mxGraphModel>
  </diagram>
</mxfile>
